<?xml version="1.0" encoding="UTF-8" standalone="no"?>
<svg
   xmlns:dc="http://purl.org/dc/elements/1.1/"
   xmlns:cc="http://creativecommons.org/ns#"
   xmlns:rdf="http://www.w3.org/1999/02/22-rdf-syntax-ns#"
   xmlns:svg="http://www.w3.org/2000/svg"
   xmlns="http://www.w3.org/2000/svg"
   xmlns:sodipodi="http://sodipodi.sourceforge.net/DTD/sodipodi-0.dtd"
   xmlns:inkscape="http://www.inkscape.org/namespaces/inkscape"
   version="1.1"
   width="243"
   height="234"
   id="freifunk.net logo"
   inkscape:version="0.48.4 r9939"
   sodipodi:docname="logo-ks.svg">
  <metadata
     id="metadata3073">
    <rdf:RDF>
      <cc:Work
         rdf:about="">
        <dc:format>image/svg+xml</dc:format>
        <dc:type
           rdf:resource="http://purl.org/dc/dcmitype/StillImage" />
        <dc:title></dc:title>
      </cc:Work>
    </rdf:RDF>
  </metadata>
  <defs
     id="defs3071" />
  <sodipodi:namedview
     pagecolor="#ffffff"
     bordercolor="#666666"
     borderopacity="1"
     objecttolerance="10"
     gridtolerance="10"
     guidetolerance="10"
     inkscape:pageopacity="0"
     inkscape:pageshadow="2"
     inkscape:window-width="1400"
     inkscape:window-height="1034"
     id="namedview3069"
     showgrid="false"
     inkscape:zoom="2.4658083"
     inkscape:cx="116.19623"
     inkscape:cy="117"
     inkscape:window-x="0"
     inkscape:window-y="0"
     inkscape:window-maximized="0"
     inkscape:current-layer="freifunk.net logo" />
  <path
     d="m 156.80519,0.29222107 c 47.50887,0 86.02112,38.67462093 86.02112,86.38362293 0,47.709126 -38.51225,86.383996 -86.02112,86.383996 -47.50849,0 -86.020741,-38.67487 -86.020741,-86.383996 0,-47.709002 38.512251,-86.38362293 86.020741,-86.38362293 z"
     id="path1"
     style="fill:#ffffff" />
  <path
     d="m 67.450949,51.553222 c 33.269751,0 60.239251,27.08312 60.239251,60.493118 0,33.41 -26.9695,60.49313 -60.239251,60.49313 -33.26925,0 -60.2388805,-27.08313 -60.2388805,-60.49313 0,-33.409998 26.9696305,-60.493118 60.2388805,-60.493118 z"
     id="path2"
     style="fill:#ffffff" />
  <path
     d="m 67.450949,61.635602 c 27.725,0 50.199631,22.569252 50.199631,50.410738 0,27.84175 -22.474631,50.41138 -50.199631,50.41138 -27.72463,0 -50.19925,-22.56963 -50.19925,-50.41138 0,-27.841496 22.47462,-50.410738 50.19925,-50.410738 z"
     id="path3"
     style="fill:none;stroke:#de2c68;stroke-width:2.52874994" />
  <path
     d="m 68.751319,100.60409 -12.55187,-12.608996 -11.821,0 8.36763,8.40613 -16.74838,2.5e-4 0,8.407996 16.74838,0 -8.36763,8.40613 11.821,0 12.55187,-12.60925 z"
     id="path4"
     style="fill:#ffcc33" />
  <path
     d="m 156.80519,16.100601 c 38.81437,0 70.27862,31.597001 70.27862,70.575003 0,38.977866 -31.46425,70.574866 -70.27862,70.574866 -38.81399,0 -70.278241,-31.597 -70.278241,-70.574866 0,-38.978002 31.464251,-70.575003 70.278241,-70.575003 z"
     id="path5"
     style="fill:none;stroke:#de2c68;stroke-width:15.11937523" />
  <path
     d="m 156.80519,32.589842 c 29.74587,0 53.85862,24.21475 53.85862,54.085752 0,29.871126 -24.11275,54.085626 -53.85862,54.085626 -29.74575,0 -53.85862,-24.2145 -53.85862,-54.085626 0,-29.871002 24.11287,-54.085752 53.85862,-54.085752 z"
     id="path6"
     style="fill:none;stroke:#de2c68;stroke-width:2.52874994" />
  <path
     d="m 131.78844,100.60409 21.2525,-21.349248 20.01462,0 -14.16787,14.233132 28.36063,-2.5e-4 0,14.230866 -28.36063,0 14.16787,14.23275 -20.01462,0 -21.2525,-21.34912 z"
     id="path7"
     style="fill:#ffcc33" />
  <g
     transform="matrix(1.0151818,0,0,1.0151818,0.77903668,46.911253)"
     style="font-size:53px;font-style:normal;font-weight:normal;text-align:center;line-height:125%;letter-spacing:0px;word-spacing:0px;text-anchor:middle;fill:#000000;fill-opacity:1;stroke:none;font-family:Swiss 911;-inkscape-font-specification:Swiss 911"
     id="flowRoot3075">
    <path
       d="m 6.9952656,143.5844 -1.643,0 0,-4.823 1.643,0 0,-2.915 c -2.1e-6,-1.5193 0.4416641,-2.6853 1.325,-3.498 0.9186623,-0.81263 2.1729944,-1.21896 3.7630004,-1.219 l 3.816,0 0,4.77 c -1.448677,4e-5 -2.173009,0.40637 -2.173,1.219 l 0,1.643 2.173,0 0,4.823 -2.173,0 0,25.705 -6.7310004,0 0,-25.705"
       style=""
       id="path3103" />
    <path
       d="m 17.114953,138.7614 6.625,0 0,2.544 0.106,0 c 1.130658,-2.08463 2.738323,-3.12697 4.823,-3.127 2.932651,3e-5 4.398983,1.73136 4.399,5.194 l 0,11.819 -6.784,0 0,-9.593 c -10e-6,-0.60064 -0.08834,-1.04231 -0.265,-1.325 -0.141343,-0.31797 -0.459343,-0.47697 -0.954,-0.477 -0.812675,3e-5 -1.219008,0.60069 -1.219,1.802 l 0,23.691 -6.731,0 0,-30.528"
       style=""
       id="path3105" />
    <path
       d="m 41.234094,150.4214 2.438,0 0,-5.777 c -1e-5,-1.23664 -0.406343,-1.85497 -1.219,-1.855 -0.812675,3e-5 -1.219008,0.61836 -1.219,1.855 l 0,5.777 m 0,12.72 c -8e-6,1.23667 0.406325,1.85501 1.219,1.855 0.812657,1e-5 1.21899,-0.61833 1.219,-1.855 l 0,-5.724 6.731,0 0,5.671 c -1.7e-5,2.19067 -0.689016,3.90434 -2.067,5.141 -1.378014,1.20134 -3.339012,1.802 -5.883,1.802 -1.554674,0 -2.84434,-0.19433 -3.869,-0.583 -1.024671,-0.35333 -1.837337,-0.88333 -2.438,-1.59 -0.600669,-0.742 -1.024669,-1.64299 -1.272,-2.703 -0.247335,-1.09533 -0.371001,-2.36732 -0.371,-3.816 l 0,-14.628 c -10e-7,-1.44864 0.123665,-2.72064 0.371,-3.816 0.247331,-1.0953 0.671331,-1.9963 1.272,-2.703 0.600663,-0.74197 1.395662,-1.28963 2.385,-1.643 1.02466,-0.3533 2.314326,-0.52997 3.869,-0.53 2.543988,3e-5 4.504986,0.58303 5.883,1.749 1.413317,1.16603 2.119983,2.7737 2.12,4.823 l 0,10.388 -9.169,0 0,8.162"
       style=""
       id="path3107" />
    <path
       d="m 52.517297,138.7614 6.731,0 0,30.528 -6.731,0 0,-30.528 m 0,-7.632 6.731,0 0,5.777 -6.731,0 0,-5.777"
       style=""
       id="path3109" />
    <path
       d="m 62.583156,143.5844 -1.643,0 0,-4.823 1.643,0 0,-2.915 c -2e-6,-1.5193 0.441664,-2.6853 1.325,-3.498 0.918663,-0.81263 2.172995,-1.21896 3.763,-1.219 l 3.816,0 0,4.77 c -1.448676,4e-5 -2.173009,0.40637 -2.173,1.219 l 0,1.643 2.173,0 0,4.823 -2.173,0 0,25.705 -6.731,0 0,-25.705"
       style=""
       id="path3111" />
    <path
       d="m 88.655844,169.2894 -6.625,0 0,-2.544 -0.159,0 c -1.095343,2.04934 -2.685341,3.074 -4.77,3.074 -2.932669,0 -4.399001,-1.71366 -4.399,-5.141 l 0,-25.917 6.731,0 0,23.691 c -8e-6,0.60068 0.08833,1.06001 0.265,1.378 0.176658,0.28267 0.512324,0.42401 1.007,0.424 0.777323,1e-5 1.165989,-0.60066 1.166,-1.802 l 0,-23.691 6.784,0 0,30.528"
       style=""
       id="path3113" />
    <path
       d="m 90.818078,138.7614 6.625,0 0,2.544 0.106,0 c 1.130658,-2.08463 2.738322,-3.12697 4.823002,-3.127 2.93265,3e-5 4.39898,1.73136 4.399,5.194 l 0,25.917 -6.784002,0 0,-23.691 c -1e-5,-0.60064 -0.08834,-1.04231 -0.265,-1.325 -0.141343,-0.31797 -0.459343,-0.47697 -0.954,-0.477 -0.812675,3e-5 -1.219008,0.60069 -1.219,1.802 l 0,23.691 -6.731,0 0,-30.528"
       style=""
       id="path3115" />
    <path
       d="m 108.93331,131.1294 6.731,0 0,20.935 0.106,0 2.862,-13.303 6.89,0 -3.339,13.197 3.339,17.331 -7.102,0 -2.65,-16.006 -0.106,0 0,16.006 -6.731,0 0,-38.16"
       style=""
       id="path3117" />
    <path
       d="m 136.46847,131.1294 6.731,0 0,20.935 0.106,0 2.862,-13.303 6.89,0 -3.339,13.197 3.339,17.331 -7.102,0 -2.65,-16.006 -0.106,0 0,16.006 -6.731,0 0,-38.16"
       style=""
       id="path3119" />
    <path
       d="m 163.07861,154.2904 c -0.81268,0.63602 -1.43101,1.14835 -1.855,1.537 -0.38868,0.35335 -0.58301,0.86568 -0.583,1.537 l 0,5.035 c -1e-5,0.60068 0.0707,1.06001 0.212,1.378 0.17666,0.28267 0.51232,0.42401 1.007,0.424 0.81266,1e-5 1.21899,-0.60066 1.219,-1.802 l 0,-8.109 m -9.222,-9.275 c 0,-2.33197 0.67133,-4.08097 2.014,-5.247 1.34266,-1.16597 3.32133,-1.74897 5.936,-1.749 1.55466,3e-5 2.84432,0.1767 3.869,0.53 1.02465,0.35337 1.83732,0.90103 2.438,1.643 0.60065,0.7067 1.02465,1.6077 1.272,2.703 0.24732,1.09536 0.37098,2.36736 0.371,3.816 l 0,18.603 c -2e-5,0.70667 0.0353,1.378 0.106,2.014 0.0707,0.636 0.19432,1.28967 0.371,1.961 l -6.837,0 c -0.17668,-0.77733 -0.26501,-1.484 -0.265,-2.12 l 0,-0.477 -0.106,0 c -0.98934,2.08467 -2.59701,3.127 -4.823,3.127 -2.89734,0 -4.346,-1.71366 -4.346,-5.141 l 0,-6.466 c 0,-1.48399 0.265,-2.73832 0.795,-3.763 0.53,-1.05998 1.484,-1.96098 2.862,-2.703 0.77733,-0.42398 1.50166,-0.79498 2.173,-1.113 0.70666,-0.35331 1.30732,-0.68898 1.802,-1.007 0.49466,-0.35331 0.88332,-0.72431 1.166,-1.113 0.28266,-0.38864 0.42399,-0.84798 0.424,-1.378 l 0,-2.173 c -1e-5,-1.23664 -0.42401,-1.85497 -1.272,-1.855 -0.77734,3e-5 -1.16601,0.61836 -1.166,1.855 l 0,4.452 -6.784,0 0,-4.399"
       style=""
       id="path3121" />
    <path
       d="m 187.71533,162.9824 c -2e-5,2.29667 -0.68902,4.04567 -2.067,5.247 -1.34268,1.20134 -3.30368,1.802 -5.883,1.802 -2.54401,0 -4.52267,-0.60066 -5.936,-1.802 -1.378,-1.23666 -2.067,-2.95033 -2.067,-5.141 l 0,-5.671 6.784,0 0,5.724 c -1e-5,1.23667 0.40632,1.85501 1.219,1.855 0.81266,1e-5 1.21899,-0.61833 1.219,-1.855 l 0,-2.756 c -1e-5,-0.52999 -0.10601,-1.00699 -0.318,-1.431 -0.17668,-0.42399 -0.45934,-0.83032 -0.848,-1.219 -0.38868,-0.42399 -0.86568,-0.84799 -1.431,-1.272 -0.56534,-0.42398 -1.20134,-0.93632 -1.908,-1.537 -0.77734,-0.63598 -1.46634,-1.21898 -2.067,-1.749 -0.56534,-0.52998 -1.06,-1.07765 -1.484,-1.643 -0.38867,-0.56531 -0.689,-1.18365 -0.901,-1.855 -0.17667,-0.70664 -0.265,-1.55464 -0.265,-2.544 l 0,-2.703 c 0,-2.0493 0.689,-3.62164 2.067,-4.717 1.41333,-1.13063 3.37433,-1.69597 5.883,-1.696 2.54399,3e-5 4.50498,0.6007 5.883,1.802 1.41332,1.16603 2.11998,2.80903 2.12,4.929 l 0,4.664 -6.731,0 0,-4.77 c -1e-5,-1.23664 -0.40634,-1.85497 -1.219,-1.855 -0.81268,3e-5 -1.21901,0.61836 -1.219,1.855 l 0,1.643 c -1e-5,0.60069 0.0883,1.13069 0.265,1.59 0.21199,0.42402 0.49466,0.83036 0.848,1.219 0.38866,0.38869 0.84799,0.79502 1.378,1.219 0.56532,0.38869 1.20132,0.86569 1.908,1.431 0.88332,0.70669 1.62532,1.34269 2.226,1.908 0.63598,0.56535 1.13065,1.13068 1.484,1.696 0.38865,0.53002 0.65365,1.13068 0.795,1.802 0.17665,0.63601 0.26498,1.41335 0.265,2.332 l 0,3.498"
       style=""
       id="path3123" />
    <path
       d="m 205.4165,162.9824 c -2e-5,2.29667 -0.68902,4.04567 -2.067,5.247 -1.34268,1.20134 -3.30368,1.802 -5.883,1.802 -2.54401,0 -4.52267,-0.60066 -5.936,-1.802 -1.378,-1.23666 -2.067,-2.95033 -2.067,-5.141 l 0,-5.671 6.784,0 0,5.724 c -1e-5,1.23667 0.40633,1.85501 1.219,1.855 0.81266,1e-5 1.21899,-0.61833 1.219,-1.855 l 0,-2.756 c -1e-5,-0.52999 -0.10601,-1.00699 -0.318,-1.431 -0.17668,-0.42399 -0.45934,-0.83032 -0.848,-1.219 -0.38868,-0.42399 -0.86567,-0.84799 -1.431,-1.272 -0.56534,-0.42398 -1.20134,-0.93632 -1.908,-1.537 -0.77734,-0.63598 -1.46634,-1.21898 -2.067,-1.749 -0.56534,-0.52998 -1.06,-1.07765 -1.484,-1.643 -0.38867,-0.56531 -0.689,-1.18365 -0.901,-1.855 -0.17667,-0.70664 -0.265,-1.55464 -0.265,-2.544 l 0,-2.703 c 0,-2.0493 0.689,-3.62164 2.067,-4.717 1.41333,-1.13063 3.37433,-1.69597 5.883,-1.696 2.54399,3e-5 4.50499,0.6007 5.883,1.802 1.41332,1.16603 2.11998,2.80903 2.12,4.929 l 0,4.664 -6.731,0 0,-4.77 c -1e-5,-1.23664 -0.40634,-1.85497 -1.219,-1.855 -0.81267,3e-5 -1.21901,0.61836 -1.219,1.855 l 0,1.643 c -1e-5,0.60069 0.0883,1.13069 0.265,1.59 0.21199,0.42402 0.49466,0.83036 0.848,1.219 0.38866,0.38869 0.84799,0.79502 1.378,1.219 0.56532,0.38869 1.20132,0.86569 1.908,1.431 0.88332,0.70669 1.62532,1.34269 2.226,1.908 0.63599,0.56535 1.13065,1.13068 1.484,1.696 0.38865,0.53002 0.65365,1.13068 0.795,1.802 0.17665,0.63601 0.26498,1.41335 0.265,2.332 l 0,3.498"
       style=""
       id="path3125" />
    <path
       d="m 214.00167,150.4214 2.438,0 0,-5.777 c -1e-5,-1.23664 -0.40634,-1.85497 -1.219,-1.855 -0.81267,3e-5 -1.21901,0.61836 -1.219,1.855 l 0,5.777 m 0,12.72 c -1e-5,1.23667 0.40633,1.85501 1.219,1.855 0.81266,1e-5 1.21899,-0.61833 1.219,-1.855 l 0,-5.724 6.731,0 0,5.671 c -2e-5,2.19067 -0.68901,3.90434 -2.067,5.141 -1.37801,1.20134 -3.33901,1.802 -5.883,1.802 -1.55467,0 -2.84434,-0.19433 -3.869,-0.583 -1.02467,-0.35333 -1.83733,-0.88333 -2.438,-1.59 -0.60067,-0.742 -1.02467,-1.64299 -1.272,-2.703 -0.24733,-1.09533 -0.371,-2.36732 -0.371,-3.816 l 0,-14.628 c 0,-1.44864 0.12367,-2.72064 0.371,-3.816 0.24733,-1.0953 0.67133,-1.9963 1.272,-2.703 0.60067,-0.74197 1.39566,-1.28963 2.385,-1.643 1.02466,-0.3533 2.31433,-0.52997 3.869,-0.53 2.54399,3e-5 4.50499,0.58303 5.883,1.749 1.41332,1.16603 2.11998,2.7737 2.12,4.823 l 0,10.388 -9.169,0 0,8.162"
       style=""
       id="path3127" />
    <path
       d="m 225.28487,131.1294 6.731,0 0,38.16 -6.731,0 0,-38.16"
       style=""
       id="path3129" />
  </g>
</svg>
